<svg width="220" height="172" viewBox="0 0 220 172" fill="none" xmlns="http://www.w3.org/2000/svg">
<path d="M4.81641 160V166H1.37109V148.938H7.18359C8.87109 148.938 10.2148 149.461 11.2148 150.508C12.2227 151.555 12.7266 152.914 12.7266 154.586C12.7266 156.258 12.2305 157.578 11.2383 158.547C10.2461 159.516 8.87109 160 7.11328 160H4.81641ZM4.81641 157.129H7.18359C7.83984 157.129 8.34766 156.914 8.70703 156.484C9.06641 156.055 9.24609 155.43 9.24609 154.609C9.24609 153.758 9.0625 153.082 8.69531 152.582C8.32812 152.074 7.83594 151.816 7.21875 151.809H4.81641V157.129ZM22.0889 156.52L20.9873 156.426C20.0811 156.426 19.4678 156.824 19.1475 157.621V166H15.8194V153.32H18.9483L19.042 154.691C19.5655 153.621 20.2881 153.086 21.21 153.086C21.585 153.086 21.8897 153.137 22.1241 153.238L22.0889 156.52ZM29.6466 166.234C27.9434 166.234 26.6153 165.727 25.6622 164.711C24.7091 163.695 24.2325 162.242 24.2325 160.352V159.344C24.2325 157.344 24.67 155.801 25.545 154.715C26.42 153.629 27.6739 153.086 29.3067 153.086C30.9005 153.086 32.0997 153.598 32.9044 154.621C33.7091 155.637 34.1192 157.145 34.1348 159.145V160.773H27.5372C27.5841 161.711 27.7911 162.398 28.1583 162.836C28.5255 163.266 29.0919 163.48 29.8575 163.48C30.9669 163.48 31.8927 163.102 32.6348 162.344L33.9356 164.348C33.5294 164.91 32.9395 165.367 32.1661 165.719C31.3927 166.062 30.5528 166.234 29.6466 166.234ZM27.5606 158.453H30.877V158.148C30.8614 157.391 30.7364 156.816 30.502 156.426C30.2677 156.035 29.8614 155.84 29.2833 155.84C28.7052 155.84 28.2833 156.047 28.0177 156.461C27.7598 156.875 27.6075 157.539 27.5606 158.453ZM42.5831 162.602C42.5831 162.32 42.4464 162.062 42.173 161.828C41.9073 161.586 41.3097 161.262 40.38 160.855C39.0128 160.301 38.0714 159.727 37.5558 159.133C37.048 158.539 36.7941 157.801 36.7941 156.918C36.7941 155.809 37.1925 154.895 37.9894 154.176C38.7941 153.449 39.8566 153.086 41.1769 153.086C42.5675 153.086 43.6808 153.445 44.5167 154.164C45.3527 154.883 45.7706 155.848 45.7706 157.059H42.4542C42.4542 156.027 42.0245 155.512 41.1652 155.512C40.8136 155.512 40.5245 155.621 40.298 155.84C40.0714 156.059 39.9581 156.363 39.9581 156.754C39.9581 157.035 40.0831 157.285 40.3331 157.504C40.5831 157.715 41.173 158.02 42.1027 158.418C43.4542 158.918 44.4073 159.477 44.962 160.094C45.5245 160.703 45.8058 161.496 45.8058 162.473C45.8058 163.605 45.38 164.516 44.5284 165.203C43.6769 165.891 42.5597 166.234 41.1769 166.234C40.2472 166.234 39.4269 166.055 38.7159 165.695C38.005 165.328 37.4464 164.82 37.0402 164.172C36.6417 163.523 36.4425 162.824 36.4425 162.074H39.5948C39.6105 162.652 39.7433 163.086 39.9933 163.375C40.2511 163.664 40.6691 163.809 41.2472 163.809C42.1378 163.809 42.5831 163.406 42.5831 162.602ZM54.4416 162.602C54.4416 162.32 54.3048 162.062 54.0314 161.828C53.7658 161.586 53.1681 161.262 52.2384 160.855C50.8713 160.301 49.9298 159.727 49.4142 159.133C48.9064 158.539 48.6525 157.801 48.6525 156.918C48.6525 155.809 49.0509 154.895 49.8478 154.176C50.6525 153.449 51.715 153.086 53.0353 153.086C54.4259 153.086 55.5392 153.445 56.3752 154.164C57.2111 154.883 57.6291 155.848 57.6291 157.059H54.3127C54.3127 156.027 53.883 155.512 53.0236 155.512C52.672 155.512 52.383 155.621 52.1564 155.84C51.9298 156.059 51.8166 156.363 51.8166 156.754C51.8166 157.035 51.9416 157.285 52.1916 157.504C52.4416 157.715 53.0314 158.02 53.9611 158.418C55.3127 158.918 56.2658 159.477 56.8205 160.094C57.383 160.703 57.6642 161.496 57.6642 162.473C57.6642 163.605 57.2384 164.516 56.3869 165.203C55.5353 165.891 54.4181 166.234 53.0353 166.234C52.1056 166.234 51.2853 166.055 50.5744 165.695C49.8634 165.328 49.3048 164.82 48.8986 164.172C48.5002 163.523 48.3009 162.824 48.3009 162.074H51.4533C51.4689 162.652 51.6017 163.086 51.8517 163.375C52.1095 163.664 52.5275 163.809 53.1056 163.809C53.9963 163.809 54.4416 163.406 54.4416 162.602ZM67.342 166V148.938H72.6155C74.3967 148.938 75.7483 149.336 76.6702 150.133C77.5998 150.922 78.0647 152.082 78.0647 153.613C78.0647 154.48 77.8733 155.227 77.4905 155.852C77.1077 156.477 76.5842 156.934 75.9202 157.223C76.6858 157.441 77.2756 157.883 77.6897 158.547C78.1038 159.203 78.3108 160.016 78.3108 160.984C78.3108 162.641 77.8538 163.891 76.9397 164.734C76.0334 165.578 74.717 166 72.9905 166H67.342ZM70.7873 158.582V163.141H72.9905C73.6077 163.141 74.0764 162.949 74.3967 162.566C74.717 162.184 74.8772 161.641 74.8772 160.938C74.8772 159.406 74.3225 158.621 73.2131 158.582H70.7873ZM70.7873 156.074H72.5803C73.9319 156.074 74.6077 155.375 74.6077 153.977C74.6077 153.203 74.4514 152.648 74.1389 152.312C73.8264 151.977 73.3186 151.809 72.6155 151.809H70.7873V156.074ZM87.8489 164.84C87.1614 165.77 86.2395 166.234 85.0833 166.234C83.9192 166.234 83.0364 165.836 82.4348 165.039C81.8333 164.234 81.5325 163.066 81.5325 161.535V153.32H84.8489V161.617C84.8645 162.852 85.2747 163.469 86.0794 163.469C86.8372 163.469 87.3841 163.141 87.72 162.484V153.32H91.0598V166H87.9427L87.8489 164.84ZM98.2425 150.203V153.32H99.9417V155.816H98.2425V162.109C98.2425 162.609 98.3089 162.953 98.4417 163.141C98.5823 163.328 98.848 163.422 99.2386 163.422C99.5589 163.422 99.8206 163.395 100.024 163.34L100 165.918C99.4378 166.129 98.8284 166.234 98.1722 166.234C96.0316 166.234 94.9495 165.008 94.9261 162.555V155.816H93.4613V153.32H94.9261V150.203H98.2425ZM106.585 150.203V153.32H108.285V155.816H106.585V162.109C106.585 162.609 106.652 162.953 106.785 163.141C106.925 163.328 107.191 163.422 107.581 163.422C107.902 163.422 108.163 163.395 108.367 163.34L108.343 165.918C107.781 166.129 107.171 166.234 106.515 166.234C104.374 166.234 103.292 165.008 103.269 162.555V155.816H101.804V153.32H103.269V150.203H106.585ZM110.334 159.25C110.334 157.328 110.787 155.82 111.694 154.727C112.6 153.633 113.854 153.086 115.455 153.086C117.073 153.086 118.334 153.633 119.241 154.727C120.147 155.82 120.6 157.336 120.6 159.273V160.082C120.6 162.012 120.151 163.52 119.252 164.605C118.354 165.691 117.096 166.234 115.479 166.234C113.854 166.234 112.588 165.691 111.682 164.605C110.784 163.512 110.334 161.996 110.334 160.059V159.25ZM113.662 160.082C113.662 162.348 114.268 163.48 115.479 163.48C116.596 163.48 117.198 162.535 117.284 160.645L117.295 159.25C117.295 158.094 117.135 157.238 116.815 156.684C116.495 156.121 116.041 155.84 115.455 155.84C114.893 155.84 114.452 156.121 114.131 156.684C113.819 157.238 113.662 158.094 113.662 159.25V160.082ZM126.669 153.32L126.763 154.574C127.513 153.582 128.494 153.086 129.705 153.086C131.884 153.086 133.005 154.613 133.068 157.668V166H129.74V157.914C129.74 157.195 129.63 156.676 129.412 156.355C129.201 156.027 128.826 155.863 128.287 155.863C127.685 155.863 127.216 156.172 126.88 156.789V166H123.552V153.32H126.669ZM146.753 150.203V153.32H148.453V155.816H146.753V162.109C146.753 162.609 146.82 162.953 146.953 163.141C147.093 163.328 147.359 163.422 147.75 163.422C148.07 163.422 148.332 163.395 148.535 163.34L148.511 165.918C147.949 166.129 147.339 166.234 146.683 166.234C144.542 166.234 143.46 165.008 143.437 162.555V155.816H141.972V153.32H143.437V150.203H146.753ZM150.503 159.25C150.503 157.328 150.956 155.82 151.862 154.727C152.768 153.633 154.022 153.086 155.624 153.086C157.241 153.086 158.503 153.633 159.409 154.727C160.315 155.82 160.768 157.336 160.768 159.273V160.082C160.768 162.012 160.319 163.52 159.42 164.605C158.522 165.691 157.264 166.234 155.647 166.234C154.022 166.234 152.756 165.691 151.85 164.605C150.952 163.512 150.503 161.996 150.503 160.059V159.25ZM153.831 160.082C153.831 162.348 154.436 163.48 155.647 163.48C156.764 163.48 157.366 162.535 157.452 160.645L157.463 159.25C157.463 158.094 157.303 157.238 156.983 156.684C156.663 156.121 156.21 155.84 155.624 155.84C155.061 155.84 154.62 156.121 154.299 156.684C153.987 157.238 153.831 158.094 153.831 159.25V160.082ZM177.665 161.523C177.665 160.828 177.485 160.305 177.126 159.953C176.774 159.594 176.13 159.223 175.192 158.84C173.481 158.191 172.251 157.434 171.501 156.566C170.751 155.691 170.376 154.66 170.376 153.473C170.376 152.035 170.883 150.883 171.899 150.016C172.923 149.141 174.219 148.703 175.79 148.703C176.837 148.703 177.77 148.926 178.59 149.371C179.411 149.809 180.04 150.43 180.477 151.234C180.923 152.039 181.145 152.953 181.145 153.977H177.712C177.712 153.18 177.54 152.574 177.196 152.16C176.86 151.738 176.372 151.527 175.731 151.527C175.13 151.527 174.661 151.707 174.325 152.066C173.989 152.418 173.821 152.895 173.821 153.496C173.821 153.965 174.008 154.391 174.383 154.773C174.758 155.148 175.423 155.539 176.376 155.945C178.04 156.547 179.247 157.285 179.997 158.16C180.755 159.035 181.133 160.148 181.133 161.5C181.133 162.984 180.661 164.145 179.715 164.98C178.77 165.816 177.485 166.234 175.86 166.234C174.758 166.234 173.755 166.008 172.848 165.555C171.942 165.102 171.231 164.453 170.715 163.609C170.208 162.766 169.954 161.77 169.954 160.621H173.411C173.411 161.605 173.602 162.32 173.985 162.766C174.368 163.211 174.993 163.434 175.86 163.434C177.063 163.434 177.665 162.797 177.665 161.523ZM188.797 163.48C189.757 163.48 190.246 162.855 190.261 161.605H193.379C193.363 162.988 192.937 164.105 192.101 164.957C191.265 165.809 190.187 166.234 188.867 166.234C187.234 166.234 185.988 165.727 185.129 164.711C184.269 163.695 183.832 162.199 183.816 160.223V159.215C183.816 157.223 184.238 155.703 185.082 154.656C185.933 153.609 187.187 153.086 188.843 153.086C190.242 153.086 191.343 153.52 192.148 154.387C192.953 155.246 193.363 156.469 193.379 158.055H190.261C190.254 157.344 190.136 156.797 189.91 156.414C189.683 156.031 189.308 155.84 188.785 155.84C188.207 155.84 187.793 156.047 187.543 156.461C187.293 156.867 187.16 157.66 187.144 158.84V160.129C187.144 161.16 187.195 161.883 187.297 162.297C187.398 162.703 187.566 163.004 187.8 163.199C188.035 163.387 188.367 163.48 188.797 163.48ZM202.237 166C202.143 165.805 202.05 165.477 201.956 165.016C201.362 165.828 200.557 166.234 199.542 166.234C198.479 166.234 197.596 165.883 196.893 165.18C196.198 164.477 195.85 163.566 195.85 162.449C195.85 161.121 196.272 160.094 197.116 159.367C197.967 158.641 199.19 158.27 200.784 158.254H201.792V157.234C201.792 156.664 201.694 156.262 201.499 156.027C201.303 155.793 201.018 155.676 200.643 155.676C199.815 155.676 199.401 156.16 199.401 157.129H196.085C196.085 155.957 196.522 154.992 197.397 154.234C198.28 153.469 199.393 153.086 200.737 153.086C202.128 153.086 203.202 153.449 203.96 154.176C204.725 154.895 205.108 155.926 205.108 157.27V163.234C205.124 164.328 205.28 165.184 205.577 165.801V166H202.237ZM200.28 163.633C200.647 163.633 200.96 163.559 201.217 163.41C201.475 163.262 201.667 163.086 201.792 162.883V160.246H200.995C200.432 160.246 199.987 160.426 199.659 160.785C199.339 161.145 199.178 161.625 199.178 162.227C199.178 163.164 199.546 163.633 200.28 163.633ZM211.506 153.32L211.599 154.574C212.349 153.582 213.33 153.086 214.541 153.086C216.72 153.086 217.842 154.613 217.904 157.668V166H214.576V157.914C214.576 157.195 214.467 156.676 214.248 156.355C214.037 156.027 213.662 155.863 213.123 155.863C212.521 155.863 212.053 156.172 211.717 156.789V166H208.388V153.32H211.506Z" fill="url(#paint0_linear)"/>
<path d="M110 0C80.1769 0 56 24.1766 56 54.0002C56 83.8238 80.1769 108 110 108C139.824 108 164 83.8234 164 54.0002C164 24.1771 139.823 0 110 0ZM131.158 28.1883C135.784 28.1883 139.535 31.9388 139.535 36.5652C139.535 41.1915 135.784 44.942 131.158 44.942C126.532 44.942 122.781 41.1915 122.781 36.5652C122.781 31.9388 126.532 28.1883 131.158 28.1883ZM88.0776 28.1883C92.704 28.1883 96.4545 31.9388 96.4545 36.5652C96.4545 41.1915 92.704 44.942 88.0776 44.942C83.4513 44.942 79.7008 41.1915 79.7008 36.5652C79.7008 31.9388 83.4513 28.1883 88.0776 28.1883ZM110.136 90.4154C93.8505 90.4154 79.8692 80.5564 73.8301 66.4818H84.4993C89.7591 75.131 99.2728 80.9085 110.136 80.9085C120.999 80.9085 130.512 75.1312 135.772 66.4818H146.441C140.403 80.5564 126.422 90.4154 110.136 90.4154Z" fill="url(#paint1_linear)"/>
<defs>
<linearGradient id="paint0_linear" x1="110" y1="172" x2="110" y2="136.137" gradientUnits="userSpaceOnUse">
<stop stop-color="#FAA82F"/>
<stop offset="1" stop-color="#E76115"/>
</linearGradient>
<linearGradient id="paint1_linear" x1="110" y1="108" x2="110" y2="-30.3288" gradientUnits="userSpaceOnUse">
<stop stop-color="#FAA82F"/>
<stop offset="1" stop-color="#E76115"/>
</linearGradient>
</defs>
</svg>
